<?xml version="1.0" encoding="UTF-8" standalone="no"?>
<!DOCTYPE svg PUBLIC "-//W3C//DTD SVG 1.1//EN"
 "http://www.w3.org/Graphics/SVG/1.1/DTD/svg11.dtd">
<!-- Generated by graphviz version 2.40.1 (20161225.0304)
 -->
<!-- Title: dependencies Pages: 1 -->
<svg width="504pt" height="211pt"
 viewBox="0.00 0.00 504.00 211.00" xmlns="http://www.w3.org/2000/svg" xmlns:xlink="http://www.w3.org/1999/xlink">
<g id="graph0" class="graph" transform="scale(1 1) rotate(0) translate(4 207)">
<title>dependencies</title>
<polygon fill="#ffffff" stroke="transparent" points="-4,4 -4,-207 500,-207 500,4 -4,4"/>
<text text-anchor="start" x="227.0091" y="-42.4" font-family="sans-serif" font-weight="bold" font-size="14.00" fill="#000000">Legend</text>
<polygon fill="#ffffb3" stroke="transparent" points="14,-10 14,-30 34,-30 34,-10 14,-10"/>
<text text-anchor="start" x="37.629" y="-15.4" font-family="sans-serif" font-size="14.00" fill="#000000"> &#160;Declarations</text>
<polygon fill="#8dd3c7" stroke="transparent" points="127,-10 127,-30 147,-30 147,-10 127,-10"/>
<text text-anchor="start" x="150.7251" y="-15.4" font-family="sans-serif" font-size="14.00" fill="#000000"> &#160;Module</text>
<polygon fill="#80b1d3" stroke="transparent" points="213,-10 213,-30 233,-30 233,-10 213,-10"/>
<text text-anchor="start" x="236.7812" y="-15.4" font-family="sans-serif" font-size="14.00" fill="#000000"> &#160;Bootstrap</text>
<polygon fill="#fdb462" stroke="transparent" points="310,-10 310,-30 330,-30 330,-10 310,-10"/>
<text text-anchor="start" x="333.6732" y="-15.4" font-family="sans-serif" font-size="14.00" fill="#000000"> &#160;Providers</text>
<polygon fill="#fb8072" stroke="transparent" points="406,-10 406,-30 426,-30 426,-10 406,-10"/>
<text text-anchor="start" x="429.7258" y="-15.4" font-family="sans-serif" font-size="14.00" fill="#000000"> &#160;Exports</text>
<g id="clust1" class="cluster">
<title>cluster_LoginPageModule</title>
<polygon fill="none" stroke="#000000" stroke-dasharray="1,5" points="45,-70 45,-195 451,-195 451,-70 45,-70"/>
</g>
<g id="clust2" class="cluster">
<title>cluster_LoginPageModule_declarations</title>
<polygon fill="none" stroke="#000000" points="199,-78 199,-130 443,-130 443,-78 199,-78"/>
</g>
<g id="clust5" class="cluster">
<title>cluster_LoginPageModule_imports</title>
<polygon fill="none" stroke="#000000" points="53,-78 53,-130 191,-130 191,-78 53,-78"/>
</g>
<!-- LoginPage -->
<g id="node1" class="node">
<title>LoginPage</title>
<polygon fill="#ffffb3" stroke="#000000" points="435.1558,-122 358.8442,-122 358.8442,-86 435.1558,-86 435.1558,-122"/>
<text text-anchor="middle" x="397" y="-99.8" font-family="Times,serif" font-size="14.00" fill="#000000">LoginPage</text>
</g>
<!-- LoginPageModule -->
<g id="node3" class="node">
<title>LoginPageModule</title>
<polygon fill="#8dd3c7" stroke="#000000" points="334.205,-187 331.205,-191 310.205,-191 307.205,-187 213.795,-187 213.795,-151 334.205,-151 334.205,-187"/>
<text text-anchor="middle" x="274" y="-164.8" font-family="Times,serif" font-size="14.00" fill="#000000">LoginPageModule</text>
</g>
<!-- LoginPage&#45;&gt;LoginPageModule -->
<g id="edge1" class="edge">
<title>LoginPage&#45;&gt;LoginPageModule</title>
<path fill="none" stroke="#000000" d="M397,-122.1061C397,-141.3391 397,-169 397,-169 397,-169 344.419,-169 344.419,-169"/>
<polygon fill="#000000" stroke="#000000" points="344.419,-165.5001 334.419,-169 344.419,-172.5001 344.419,-165.5001"/>
</g>
<!-- UIButtonComponent -->
<g id="node2" class="node">
<title>UIButtonComponent</title>
<polygon fill="#ffffb3" stroke="#000000" points="341.2176,-122 206.7824,-122 206.7824,-86 341.2176,-86 341.2176,-122"/>
<text text-anchor="middle" x="274" y="-99.8" font-family="Times,serif" font-size="14.00" fill="#000000">UIButtonComponent</text>
</g>
<!-- UIButtonComponent&#45;&gt;LoginPageModule -->
<g id="edge2" class="edge">
<title>UIButtonComponent&#45;&gt;LoginPageModule</title>
<path fill="none" stroke="#000000" d="M274,-122.1061C274,-122.1061 274,-140.991 274,-140.991"/>
<polygon fill="#000000" stroke="#000000" points="270.5001,-140.9909 274,-150.991 277.5001,-140.991 270.5001,-140.9909"/>
</g>
<!-- AppSharedModule -->
<g id="node4" class="node">
<title>AppSharedModule</title>
<polygon fill="#8dd3c7" stroke="#000000" points="183.0297,-122 180.0297,-126 159.0297,-126 156.0297,-122 60.9703,-122 60.9703,-86 183.0297,-86 183.0297,-122"/>
<text text-anchor="middle" x="122" y="-99.8" font-family="Times,serif" font-size="14.00" fill="#000000">AppSharedModule</text>
</g>
<!-- AppSharedModule&#45;&gt;LoginPageModule -->
<g id="edge3" class="edge">
<title>AppSharedModule&#45;&gt;LoginPageModule</title>
<path fill="none" stroke="#000000" d="M122,-122.1061C122,-141.3391 122,-169 122,-169 122,-169 203.4888,-169 203.4888,-169"/>
<polygon fill="#000000" stroke="#000000" points="203.4889,-172.5001 213.4888,-169 203.4888,-165.5001 203.4889,-172.5001"/>
</g>
</g>
</svg>
