<?xml version="1.0" encoding="UTF-8" standalone="no"?>
<!DOCTYPE svg PUBLIC "-//W3C//DTD SVG 1.1//EN"
 "http://www.w3.org/Graphics/SVG/1.1/DTD/svg11.dtd">
<!-- Generated by graphviz version 2.40.1 (20161225.0304)
 -->
<!-- Title: dependencies Pages: 1 -->
<svg width="558pt" height="211pt"
 viewBox="0.00 0.00 558.00 211.00" xmlns="http://www.w3.org/2000/svg" xmlns:xlink="http://www.w3.org/1999/xlink">
<g id="graph0" class="graph" transform="scale(1 1) rotate(0) translate(4 207)">
<title>dependencies</title>
<polygon fill="#ffffff" stroke="transparent" points="-4,4 -4,-207 554,-207 554,4 -4,4"/>
<text text-anchor="start" x="254.0091" y="-42.4" font-family="sans-serif" font-weight="bold" font-size="14.00" fill="#000000">Legend</text>
<polygon fill="#ffffb3" stroke="transparent" points="41,-10 41,-30 61,-30 61,-10 41,-10"/>
<text text-anchor="start" x="64.629" y="-15.4" font-family="sans-serif" font-size="14.00" fill="#000000"> &#160;Declarations</text>
<polygon fill="#8dd3c7" stroke="transparent" points="154,-10 154,-30 174,-30 174,-10 154,-10"/>
<text text-anchor="start" x="177.7251" y="-15.4" font-family="sans-serif" font-size="14.00" fill="#000000"> &#160;Module</text>
<polygon fill="#80b1d3" stroke="transparent" points="240,-10 240,-30 260,-30 260,-10 240,-10"/>
<text text-anchor="start" x="263.7812" y="-15.4" font-family="sans-serif" font-size="14.00" fill="#000000"> &#160;Bootstrap</text>
<polygon fill="#fdb462" stroke="transparent" points="337,-10 337,-30 357,-30 357,-10 337,-10"/>
<text text-anchor="start" x="360.6732" y="-15.4" font-family="sans-serif" font-size="14.00" fill="#000000"> &#160;Providers</text>
<polygon fill="#fb8072" stroke="transparent" points="433,-10 433,-30 453,-30 453,-10 433,-10"/>
<text text-anchor="start" x="456.7258" y="-15.4" font-family="sans-serif" font-size="14.00" fill="#000000"> &#160;Exports</text>
<g id="clust1" class="cluster">
<title>cluster_TasksPageModule</title>
<polygon fill="none" stroke="#000000" stroke-dasharray="1,5" points="8,-70 8,-195 542,-195 542,-70 8,-70"/>
</g>
<g id="clust2" class="cluster">
<title>cluster_TasksPageModule_declarations</title>
<polygon fill="none" stroke="#000000" points="16,-78 16,-130 534,-130 534,-78 16,-78"/>
</g>
<!-- SortByPipe -->
<g id="node1" class="node">
<title>SortByPipe</title>
<polygon fill="#ffffb3" stroke="#000000" points="526.0594,-122 445.9406,-122 445.9406,-86 526.0594,-86 526.0594,-122"/>
<text text-anchor="middle" x="486" y="-99.8" font-family="Times,serif" font-size="14.00" fill="#000000">SortByPipe</text>
</g>
<!-- TasksPageModule -->
<g id="node5" class="node">
<title>TasksPageModule</title>
<polygon fill="#8dd3c7" stroke="#000000" points="342.9187,-187 339.9187,-191 318.9187,-191 315.9187,-187 223.0813,-187 223.0813,-151 342.9187,-151 342.9187,-187"/>
<text text-anchor="middle" x="283" y="-164.8" font-family="Times,serif" font-size="14.00" fill="#000000">TasksPageModule</text>
</g>
<!-- SortByPipe&#45;&gt;TasksPageModule -->
<g id="edge1" class="edge">
<title>SortByPipe&#45;&gt;TasksPageModule</title>
<path fill="none" stroke="#000000" d="M486,-122.1061C486,-141.3391 486,-169 486,-169 486,-169 352.8087,-169 352.8087,-169"/>
<polygon fill="#000000" stroke="#000000" points="352.8088,-165.5001 342.8087,-169 352.8087,-172.5001 352.8088,-165.5001"/>
</g>
<!-- TaskListItemComponent -->
<g id="node2" class="node">
<title>TaskListItemComponent</title>
<polygon fill="#ffffb3" stroke="#000000" points="427.979,-122 272.021,-122 272.021,-86 427.979,-86 427.979,-122"/>
<text text-anchor="middle" x="350" y="-99.8" font-family="Times,serif" font-size="14.00" fill="#000000">TaskListItemComponent</text>
</g>
<!-- TaskListItemComponent&#45;&gt;TasksPageModule -->
<g id="edge2" class="edge">
<title>TaskListItemComponent&#45;&gt;TasksPageModule</title>
<path fill="none" stroke="#000000" d="M307.3598,-122.1061C307.3598,-122.1061 307.3598,-140.991 307.3598,-140.991"/>
<polygon fill="#000000" stroke="#000000" points="303.8598,-140.9909 307.3598,-150.991 310.8598,-140.991 303.8598,-140.9909"/>
</g>
<!-- TasksPage -->
<g id="node3" class="node">
<title>TasksPage</title>
<polygon fill="#ffffb3" stroke="#000000" points="253.8683,-122 178.1317,-122 178.1317,-86 253.8683,-86 253.8683,-122"/>
<text text-anchor="middle" x="216" y="-99.8" font-family="Times,serif" font-size="14.00" fill="#000000">TasksPage</text>
</g>
<!-- TasksPage&#45;&gt;TasksPageModule -->
<g id="edge3" class="edge">
<title>TasksPage&#45;&gt;TasksPageModule</title>
<path fill="none" stroke="#000000" d="M238.6126,-122.1061C238.6126,-122.1061 238.6126,-140.991 238.6126,-140.991"/>
<polygon fill="#000000" stroke="#000000" points="235.1126,-140.9909 238.6126,-150.991 242.1126,-140.991 235.1126,-140.9909"/>
</g>
<!-- TranslatePriorityPipe -->
<g id="node4" class="node">
<title>TranslatePriorityPipe</title>
<polygon fill="#ffffb3" stroke="#000000" points="159.7464,-122 24.2536,-122 24.2536,-86 159.7464,-86 159.7464,-122"/>
<text text-anchor="middle" x="92" y="-99.8" font-family="Times,serif" font-size="14.00" fill="#000000">TranslatePriorityPipe</text>
</g>
<!-- TranslatePriorityPipe&#45;&gt;TasksPageModule -->
<g id="edge4" class="edge">
<title>TranslatePriorityPipe&#45;&gt;TasksPageModule</title>
<path fill="none" stroke="#000000" d="M92,-122.1061C92,-141.3391 92,-169 92,-169 92,-169 213.0905,-169 213.0905,-169"/>
<polygon fill="#000000" stroke="#000000" points="213.0905,-172.5001 223.0905,-169 213.0904,-165.5001 213.0905,-172.5001"/>
</g>
</g>
</svg>
