<?xml version="1.0" encoding="UTF-8" standalone="no"?>
<!DOCTYPE svg PUBLIC "-//W3C//DTD SVG 1.1//EN"
 "http://www.w3.org/Graphics/SVG/1.1/DTD/svg11.dtd">
<!-- Generated by graphviz version 2.40.1 (20161225.0304)
 -->
<!-- Title: dependencies Pages: 1 -->
<svg width="1414pt" height="284pt"
 viewBox="0.00 0.00 1414.00 284.00" xmlns="http://www.w3.org/2000/svg" xmlns:xlink="http://www.w3.org/1999/xlink">
<g id="graph0" class="graph" transform="scale(1 1) rotate(0) translate(4 280)">
<title>dependencies</title>
<polygon fill="#ffffff" stroke="transparent" points="-4,4 -4,-280 1410,-280 1410,4 -4,4"/>
<text text-anchor="start" x="682.0091" y="-42.4" font-family="sans-serif" font-weight="bold" font-size="14.00" fill="#000000">Legend</text>
<polygon fill="#ffffb3" stroke="transparent" points="469,-10 469,-30 489,-30 489,-10 469,-10"/>
<text text-anchor="start" x="492.629" y="-15.4" font-family="sans-serif" font-size="14.00" fill="#000000"> &#160;Declarations</text>
<polygon fill="#8dd3c7" stroke="transparent" points="582,-10 582,-30 602,-30 602,-10 582,-10"/>
<text text-anchor="start" x="605.7251" y="-15.4" font-family="sans-serif" font-size="14.00" fill="#000000"> &#160;Module</text>
<polygon fill="#80b1d3" stroke="transparent" points="668,-10 668,-30 688,-30 688,-10 668,-10"/>
<text text-anchor="start" x="691.7812" y="-15.4" font-family="sans-serif" font-size="14.00" fill="#000000"> &#160;Bootstrap</text>
<polygon fill="#fdb462" stroke="transparent" points="765,-10 765,-30 785,-30 785,-10 765,-10"/>
<text text-anchor="start" x="788.6732" y="-15.4" font-family="sans-serif" font-size="14.00" fill="#000000"> &#160;Providers</text>
<polygon fill="#fb8072" stroke="transparent" points="861,-10 861,-30 881,-30 881,-10 861,-10"/>
<text text-anchor="start" x="884.7258" y="-15.4" font-family="sans-serif" font-size="14.00" fill="#000000"> &#160;Exports</text>
<g id="clust1" class="cluster">
<title>cluster_AppModule</title>
<polygon fill="none" stroke="#000000" stroke-dasharray="1,5" points="8,-70 8,-268 298,-268 298,-70 8,-70"/>
</g>
<g id="clust2" class="cluster">
<title>cluster_AppModule_declarations</title>
<polygon fill="none" stroke="#000000" points="168,-78 168,-130 290,-130 290,-78 168,-78"/>
</g>
<g id="clust4" class="cluster">
<title>cluster_AppModule_imports</title>
<polygon fill="none" stroke="#000000" points="16,-78 16,-130 160,-130 160,-78 16,-78"/>
</g>
<g id="clust6" class="cluster">
<title>cluster_AppModule_bootstrap</title>
<polygon fill="none" stroke="#000000" points="96,-208 96,-260 220,-260 220,-208 96,-208"/>
</g>
<g id="clust20" class="cluster">
<title>cluster_HomePageModule</title>
<polygon fill="none" stroke="#000000" stroke-dasharray="1,5" points="306,-70 306,-195 442,-195 442,-70 306,-70"/>
</g>
<g id="clust21" class="cluster">
<title>cluster_HomePageModule_declarations</title>
<polygon fill="none" stroke="#000000" points="327,-78 327,-130 421,-130 421,-78 327,-78"/>
</g>
<g id="clust27" class="cluster">
<title>cluster_LoginPageModule</title>
<polygon fill="none" stroke="#000000" stroke-dasharray="1,5" points="450,-70 450,-195 856,-195 856,-70 450,-70"/>
</g>
<g id="clust28" class="cluster">
<title>cluster_LoginPageModule_declarations</title>
<polygon fill="none" stroke="#000000" points="604,-78 604,-130 848,-130 848,-78 604,-78"/>
</g>
<g id="clust31" class="cluster">
<title>cluster_LoginPageModule_imports</title>
<polygon fill="none" stroke="#000000" points="458,-78 458,-130 596,-130 596,-78 458,-78"/>
</g>
<g id="clust35" class="cluster">
<title>cluster_TasksPageModule</title>
<polygon fill="none" stroke="#000000" stroke-dasharray="1,5" points="864,-70 864,-195 1398,-195 1398,-70 864,-70"/>
</g>
<g id="clust36" class="cluster">
<title>cluster_TasksPageModule_declarations</title>
<polygon fill="none" stroke="#000000" points="872,-78 872,-130 1390,-130 1390,-78 872,-78"/>
</g>
<!-- AppComponent -->
<g id="node1" class="node">
<title>AppComponent</title>
<polygon fill="#ffffb3" stroke="#000000" points="281.9399,-122 176.0601,-122 176.0601,-86 281.9399,-86 281.9399,-122"/>
<text text-anchor="middle" x="229" y="-99.8" font-family="Times,serif" font-size="14.00" fill="#000000">AppComponent</text>
</g>
<!-- AppModule -->
<g id="node2" class="node">
<title>AppModule</title>
<polygon fill="#8dd3c7" stroke="#000000" points="199.6571,-187 196.6571,-191 175.6571,-191 172.6571,-187 116.3429,-187 116.3429,-151 199.6571,-151 199.6571,-187"/>
<text text-anchor="middle" x="158" y="-164.8" font-family="Times,serif" font-size="14.00" fill="#000000">AppModule</text>
</g>
<!-- AppComponent&#45;&gt;AppModule -->
<g id="edge1" class="edge">
<title>AppComponent&#45;&gt;AppModule</title>
<path fill="none" stroke="#000000" d="M188.0544,-122.1061C188.0544,-122.1061 188.0544,-140.991 188.0544,-140.991"/>
<polygon fill="#000000" stroke="#000000" points="184.5544,-140.9909 188.0544,-150.991 191.5544,-140.991 184.5544,-140.9909"/>
</g>
<!-- AppComponent  -->
<g id="node4" class="node">
<title>AppComponent </title>
<polygon fill="#80b1d3" stroke="#000000" points="212.439,-252 103.561,-252 103.561,-216 212.439,-216 212.439,-252"/>
<text text-anchor="middle" x="158" y="-229.8" font-family="Times,serif" font-size="14.00" fill="#000000">AppComponent </text>
</g>
<!-- AppModule&#45;&gt;AppComponent  -->
<g id="edge3" class="edge">
<title>AppModule&#45;&gt;AppComponent </title>
<path fill="none" stroke="#000000" stroke-dasharray="1,5" d="M158,-187.1061C158,-187.1061 158,-205.991 158,-205.991"/>
<polygon fill="#000000" stroke="#000000" points="154.5001,-205.9909 158,-215.991 161.5001,-205.991 154.5001,-205.9909"/>
</g>
<!-- AppRoutingModule -->
<g id="node3" class="node">
<title>AppRoutingModule</title>
<polygon fill="#8dd3c7" stroke="#000000" points="152.2744,-122 149.2744,-126 128.2744,-126 125.2744,-122 23.7256,-122 23.7256,-86 152.2744,-86 152.2744,-122"/>
<text text-anchor="middle" x="88" y="-99.8" font-family="Times,serif" font-size="14.00" fill="#000000">AppRoutingModule</text>
</g>
<!-- AppRoutingModule&#45;&gt;AppModule -->
<g id="edge2" class="edge">
<title>AppRoutingModule&#45;&gt;AppModule</title>
<path fill="none" stroke="#000000" d="M134.2795,-122.1061C134.2795,-122.1061 134.2795,-140.991 134.2795,-140.991"/>
<polygon fill="#000000" stroke="#000000" points="130.7795,-140.9909 134.2795,-150.991 137.7795,-140.991 130.7795,-140.9909"/>
</g>
<!-- HomePage -->
<g id="node5" class="node">
<title>HomePage</title>
<polygon fill="#ffffb3" stroke="#000000" points="412.9248,-122 335.0752,-122 335.0752,-86 412.9248,-86 412.9248,-122"/>
<text text-anchor="middle" x="374" y="-99.8" font-family="Times,serif" font-size="14.00" fill="#000000">HomePage</text>
</g>
<!-- HomePageModule -->
<g id="node6" class="node">
<title>HomePageModule</title>
<polygon fill="#8dd3c7" stroke="#000000" points="434.4734,-187 431.4734,-191 410.4734,-191 407.4734,-187 313.5266,-187 313.5266,-151 434.4734,-151 434.4734,-187"/>
<text text-anchor="middle" x="374" y="-164.8" font-family="Times,serif" font-size="14.00" fill="#000000">HomePageModule</text>
</g>
<!-- HomePage&#45;&gt;HomePageModule -->
<g id="edge4" class="edge">
<title>HomePage&#45;&gt;HomePageModule</title>
<path fill="none" stroke="#000000" d="M374,-122.1061C374,-122.1061 374,-140.991 374,-140.991"/>
<polygon fill="#000000" stroke="#000000" points="370.5001,-140.9909 374,-150.991 377.5001,-140.991 370.5001,-140.9909"/>
</g>
<!-- LoginPage -->
<g id="node7" class="node">
<title>LoginPage</title>
<polygon fill="#ffffb3" stroke="#000000" points="840.1558,-122 763.8442,-122 763.8442,-86 840.1558,-86 840.1558,-122"/>
<text text-anchor="middle" x="802" y="-99.8" font-family="Times,serif" font-size="14.00" fill="#000000">LoginPage</text>
</g>
<!-- LoginPageModule -->
<g id="node9" class="node">
<title>LoginPageModule</title>
<polygon fill="#8dd3c7" stroke="#000000" points="739.205,-187 736.205,-191 715.205,-191 712.205,-187 618.795,-187 618.795,-151 739.205,-151 739.205,-187"/>
<text text-anchor="middle" x="679" y="-164.8" font-family="Times,serif" font-size="14.00" fill="#000000">LoginPageModule</text>
</g>
<!-- LoginPage&#45;&gt;LoginPageModule -->
<g id="edge5" class="edge">
<title>LoginPage&#45;&gt;LoginPageModule</title>
<path fill="none" stroke="#000000" d="M802,-122.2843C802,-143.3211 802,-175 802,-175 802,-175 749.419,-175 749.419,-175"/>
<polygon fill="#000000" stroke="#000000" points="749.419,-171.5001 739.419,-175 749.419,-178.5001 749.419,-171.5001"/>
</g>
<!-- UIButtonComponent -->
<g id="node8" class="node">
<title>UIButtonComponent</title>
<polygon fill="#ffffb3" stroke="#000000" points="746.2176,-122 611.7824,-122 611.7824,-86 746.2176,-86 746.2176,-122"/>
<text text-anchor="middle" x="679" y="-99.8" font-family="Times,serif" font-size="14.00" fill="#000000">UIButtonComponent</text>
</g>
<!-- UIButtonComponent&#45;&gt;LoginPageModule -->
<g id="edge6" class="edge">
<title>UIButtonComponent&#45;&gt;LoginPageModule</title>
<path fill="none" stroke="#000000" d="M679,-122.1061C679,-122.1061 679,-140.991 679,-140.991"/>
<polygon fill="#000000" stroke="#000000" points="675.5001,-140.9909 679,-150.991 682.5001,-140.991 675.5001,-140.9909"/>
</g>
<!-- AppSharedModule -->
<g id="node10" class="node">
<title>AppSharedModule</title>
<polygon fill="#8dd3c7" stroke="#000000" points="588.0297,-122 585.0297,-126 564.0297,-126 561.0297,-122 465.9703,-122 465.9703,-86 588.0297,-86 588.0297,-122"/>
<text text-anchor="middle" x="527" y="-99.8" font-family="Times,serif" font-size="14.00" fill="#000000">AppSharedModule</text>
</g>
<!-- AppSharedModule&#45;&gt;LoginPageModule -->
<g id="edge7" class="edge">
<title>AppSharedModule&#45;&gt;LoginPageModule</title>
<path fill="none" stroke="#000000" d="M527,-122.1061C527,-141.3391 527,-169 527,-169 527,-169 608.4888,-169 608.4888,-169"/>
<polygon fill="#000000" stroke="#000000" points="608.4889,-172.5001 618.4888,-169 608.4888,-165.5001 608.4889,-172.5001"/>
</g>
<!-- SortByPipe -->
<g id="node11" class="node">
<title>SortByPipe</title>
<polygon fill="#ffffb3" stroke="#000000" points="1382.0594,-122 1301.9406,-122 1301.9406,-86 1382.0594,-86 1382.0594,-122"/>
<text text-anchor="middle" x="1342" y="-99.8" font-family="Times,serif" font-size="14.00" fill="#000000">SortByPipe</text>
</g>
<!-- TasksPageModule -->
<g id="node15" class="node">
<title>TasksPageModule</title>
<polygon fill="#8dd3c7" stroke="#000000" points="1198.9187,-187 1195.9187,-191 1174.9187,-191 1171.9187,-187 1079.0813,-187 1079.0813,-151 1198.9187,-151 1198.9187,-187"/>
<text text-anchor="middle" x="1139" y="-164.8" font-family="Times,serif" font-size="14.00" fill="#000000">TasksPageModule</text>
</g>
<!-- SortByPipe&#45;&gt;TasksPageModule -->
<g id="edge8" class="edge">
<title>SortByPipe&#45;&gt;TasksPageModule</title>
<path fill="none" stroke="#000000" d="M1342,-122.1061C1342,-141.3391 1342,-169 1342,-169 1342,-169 1208.8087,-169 1208.8087,-169"/>
<polygon fill="#000000" stroke="#000000" points="1208.8088,-165.5001 1198.8087,-169 1208.8087,-172.5001 1208.8088,-165.5001"/>
</g>
<!-- TaskListItemComponent -->
<g id="node12" class="node">
<title>TaskListItemComponent</title>
<polygon fill="#ffffb3" stroke="#000000" points="1283.979,-122 1128.021,-122 1128.021,-86 1283.979,-86 1283.979,-122"/>
<text text-anchor="middle" x="1206" y="-99.8" font-family="Times,serif" font-size="14.00" fill="#000000">TaskListItemComponent</text>
</g>
<!-- TaskListItemComponent&#45;&gt;TasksPageModule -->
<g id="edge9" class="edge">
<title>TaskListItemComponent&#45;&gt;TasksPageModule</title>
<path fill="none" stroke="#000000" d="M1163.3598,-122.1061C1163.3598,-122.1061 1163.3598,-140.991 1163.3598,-140.991"/>
<polygon fill="#000000" stroke="#000000" points="1159.8598,-140.9909 1163.3598,-150.991 1166.8598,-140.991 1159.8598,-140.9909"/>
</g>
<!-- TasksPage -->
<g id="node13" class="node">
<title>TasksPage</title>
<polygon fill="#ffffb3" stroke="#000000" points="1109.8683,-122 1034.1317,-122 1034.1317,-86 1109.8683,-86 1109.8683,-122"/>
<text text-anchor="middle" x="1072" y="-99.8" font-family="Times,serif" font-size="14.00" fill="#000000">TasksPage</text>
</g>
<!-- TasksPage&#45;&gt;TasksPageModule -->
<g id="edge10" class="edge">
<title>TasksPage&#45;&gt;TasksPageModule</title>
<path fill="none" stroke="#000000" d="M1094.6126,-122.1061C1094.6126,-122.1061 1094.6126,-140.991 1094.6126,-140.991"/>
<polygon fill="#000000" stroke="#000000" points="1091.1126,-140.9909 1094.6126,-150.991 1098.1126,-140.991 1091.1126,-140.9909"/>
</g>
<!-- TranslatePriorityPipe -->
<g id="node14" class="node">
<title>TranslatePriorityPipe</title>
<polygon fill="#ffffb3" stroke="#000000" points="1015.7464,-122 880.2536,-122 880.2536,-86 1015.7464,-86 1015.7464,-122"/>
<text text-anchor="middle" x="948" y="-99.8" font-family="Times,serif" font-size="14.00" fill="#000000">TranslatePriorityPipe</text>
</g>
<!-- TranslatePriorityPipe&#45;&gt;TasksPageModule -->
<g id="edge11" class="edge">
<title>TranslatePriorityPipe&#45;&gt;TasksPageModule</title>
<path fill="none" stroke="#000000" d="M948,-122.0225C948,-139.3734 948,-163 948,-163 948,-163 1069.0905,-163 1069.0905,-163"/>
<polygon fill="#000000" stroke="#000000" points="1069.0905,-166.5001 1079.0905,-163 1069.0904,-159.5001 1069.0905,-166.5001"/>
</g>
</g>
</svg>
